<svg width="4000" height="2000" viewBox="0 0 4000 2000" fill="none" xmlns="http://www.w3.org/2000/svg">
<rect width="4000" height="2000" fill="black"/>
<path d="M1302.52 794.5L946.758 589L591 794.5V1205.5L947.761 1411L1302.52 1205.5V794.5Z" stroke="white" stroke-width="24"/>
<path d="M1057.76 939.966C1057.76 970.59 1049.24 989.826 1029.41 1021.76C1024.95 1028.93 1019.94 1036.72 1014.39 1045.35C997.095 1072.22 974.485 1107.36 946.659 1158.14C917.522 1106.11 894.897 1070.74 878.037 1044.38C871.718 1034.5 866.209 1025.89 861.47 1018.14C851.983 1002.63 845.786 990.911 841.864 979.271C838.004 967.813 836.178 955.905 836.178 939.966C836.178 878.779 885.781 829.176 946.968 829.176C1008.16 829.176 1057.76 878.779 1057.76 939.966Z" stroke="white" stroke-width="24"/>
<circle cx="946.968" cy="924.197" r="34.5999" stroke="white" stroke-width="24"/>
<path d="M1897.84 924.125H1907.96V1157H1897.84V924.125ZM1958.59 924.125H1968.71V1106.38H2049.71V1116.5H1968.71V1126.62H2049.71V1136.75H1968.71V1146.88H2049.71V1157H1958.59V924.125ZM1938.34 924.125H1948.46V1157H1938.34V924.125ZM1918.09 924.125H1928.21V1157H1918.09V924.125ZM2149.55 1027.2C2141.68 1035.08 2137.74 1044.59 2137.74 1055.75C2137.74 1066.91 2141.68 1076.47 2149.55 1084.44C2157.52 1092.31 2167.09 1096.25 2178.24 1096.25C2189.4 1096.25 2198.91 1092.31 2206.79 1084.44C2214.76 1076.47 2218.74 1066.91 2218.74 1055.75C2218.74 1044.59 2214.76 1035.08 2206.79 1027.2C2198.91 1019.23 2189.4 1015.25 2178.24 1015.25C2167.09 1015.25 2157.52 1019.23 2149.55 1027.2ZM2142.38 1091.61C2132.54 1081.67 2127.62 1069.72 2127.62 1055.75C2127.62 1041.78 2132.54 1029.88 2142.38 1020.03C2152.32 1010.09 2164.27 1005.12 2178.24 1005.12C2192.21 1005.12 2204.12 1010.09 2213.96 1020.03C2223.9 1029.88 2228.87 1041.78 2228.87 1055.75C2228.87 1069.72 2223.9 1081.67 2213.96 1091.61C2204.12 1101.45 2192.21 1106.38 2178.24 1106.38C2164.27 1106.38 2152.32 1101.45 2142.38 1091.61ZM2135.21 1012.86C2123.4 1024.77 2117.49 1039.06 2117.49 1055.75C2117.49 1072.44 2123.4 1086.73 2135.21 1098.64C2147.12 1110.55 2161.46 1116.5 2178.24 1116.5C2195.02 1116.5 2209.32 1110.55 2221.13 1098.64C2233.04 1086.73 2238.99 1072.44 2238.99 1055.75C2238.99 1039.06 2233.04 1024.77 2221.13 1012.86C2209.32 1000.95 2195.02 995 2178.24 995C2161.46 995 2147.12 1000.95 2135.21 1012.86ZM2116.79 1091.33C2110.51 1080.45 2107.37 1068.59 2107.37 1055.75C2107.37 1042.91 2110.51 1031.05 2116.79 1020.17C2123.16 1009.3 2131.79 1000.72 2142.66 994.438C2153.54 988.062 2165.4 984.875 2178.24 984.875C2191.09 984.875 2202.95 988.062 2213.82 994.438C2224.7 1000.72 2233.27 1009.3 2239.55 1020.17C2245.93 1031.05 2249.12 1042.91 2249.12 1055.75C2249.12 1068.59 2245.93 1080.45 2239.55 1091.33C2233.27 1102.2 2224.7 1110.83 2213.82 1117.2C2202.95 1123.48 2191.09 1126.62 2178.24 1126.62C2165.4 1126.62 2153.54 1123.48 2142.66 1117.2C2131.79 1110.83 2123.16 1102.2 2116.79 1091.33ZM2103.57 1024.39C2099.35 1034.33 2097.24 1044.78 2097.24 1055.75C2097.24 1066.72 2099.35 1077.22 2103.57 1087.25C2107.88 1097.19 2113.65 1105.81 2120.87 1113.12C2128.18 1120.34 2136.8 1126.11 2146.74 1130.42C2156.77 1134.64 2167.27 1136.75 2178.24 1136.75C2189.21 1136.75 2199.66 1134.64 2209.6 1130.42C2219.63 1126.11 2228.26 1120.34 2235.48 1113.12C2242.79 1105.81 2248.55 1097.19 2252.77 1087.25C2257.09 1077.22 2259.24 1066.72 2259.24 1055.75C2259.24 1044.78 2257.09 1034.33 2252.77 1024.39C2248.55 1014.36 2242.79 1005.73 2235.48 998.516C2228.26 991.203 2219.63 985.438 2209.6 981.219C2199.66 976.906 2189.21 974.75 2178.24 974.75C2167.27 974.75 2156.77 976.906 2146.74 981.219C2136.8 985.438 2128.18 991.203 2120.87 998.516C2113.65 1005.73 2107.88 1014.36 2103.57 1024.39ZM2094.29 1091.19C2089.51 1079.94 2087.12 1068.12 2087.12 1055.75C2087.12 1043.38 2089.51 1031.56 2094.29 1020.31C2099.16 1009.06 2105.63 999.406 2113.7 991.344C2121.85 983.188 2131.55 976.719 2142.8 971.938C2154.05 967.062 2165.87 964.625 2178.24 964.625C2190.62 964.625 2202.43 967.062 2213.68 971.938C2224.93 976.719 2234.59 983.188 2242.65 991.344C2250.8 999.406 2257.27 1009.06 2262.05 1020.31C2266.93 1031.56 2269.37 1043.38 2269.37 1055.75C2269.37 1068.12 2266.93 1079.94 2262.05 1091.19C2257.27 1102.44 2250.8 1112.14 2242.65 1120.3C2234.59 1128.36 2224.93 1134.83 2213.68 1139.7C2202.43 1144.48 2190.62 1146.88 2178.24 1146.88C2165.87 1146.88 2154.05 1144.48 2142.8 1139.7C2131.55 1134.83 2121.85 1128.36 2113.7 1120.3C2105.63 1112.14 2099.16 1102.44 2094.29 1091.19ZM2085.01 1016.52C2079.66 1028.98 2076.99 1042.06 2076.99 1055.75C2076.99 1069.44 2079.66 1082.56 2085.01 1095.12C2090.35 1107.59 2097.52 1118.38 2106.52 1127.47C2115.62 1136.47 2126.4 1143.64 2138.87 1148.98C2151.43 1154.33 2164.55 1157 2178.24 1157C2191.93 1157 2205.01 1154.33 2217.48 1148.98C2230.04 1143.64 2240.82 1136.47 2249.82 1127.47C2258.91 1118.38 2266.13 1107.59 2271.48 1095.12C2276.82 1082.56 2279.49 1069.44 2279.49 1055.75C2279.49 1042.06 2276.82 1028.98 2271.48 1016.52C2266.13 1003.95 2258.91 993.172 2249.82 984.172C2240.82 975.078 2230.04 967.859 2217.48 962.516C2205.01 957.172 2191.93 954.5 2178.24 954.5C2164.55 954.5 2151.43 957.172 2138.87 962.516C2126.4 967.859 2115.62 975.078 2106.52 984.172C2097.52 993.172 2090.35 1003.95 2085.01 1016.52ZM2075.73 1099.06C2069.82 1085.28 2066.87 1070.84 2066.87 1055.75C2066.87 1040.66 2069.82 1026.27 2075.73 1012.58C2081.63 998.797 2089.55 986.938 2099.49 977C2109.43 967.062 2121.24 959.141 2134.93 953.234C2148.71 947.328 2163.15 944.375 2178.24 944.375C2193.34 944.375 2207.73 947.328 2221.41 953.234C2235.2 959.141 2247.05 967.062 2256.99 977C2266.93 986.938 2274.85 998.797 2280.76 1012.58C2286.66 1026.27 2289.62 1040.66 2289.62 1055.75C2289.62 1070.84 2286.66 1085.28 2280.76 1099.06C2274.85 1112.75 2266.93 1124.56 2256.99 1134.5C2247.05 1144.44 2235.2 1152.36 2221.41 1158.27C2207.73 1164.17 2193.34 1167.12 2178.24 1167.12C2163.15 1167.12 2148.71 1164.17 2134.93 1158.27C2121.24 1152.36 2109.43 1144.44 2099.49 1134.5C2089.55 1124.56 2081.63 1112.75 2075.73 1099.06ZM2480.02 1024.25L2471.87 1030.44C2463.71 1020.31 2453.21 1015.25 2440.37 1015.25C2429.21 1015.25 2419.65 1019.23 2411.68 1027.2C2403.8 1035.08 2399.87 1044.59 2399.87 1055.75C2399.87 1066.91 2403.8 1076.47 2411.68 1084.44C2419.65 1092.31 2429.21 1096.25 2440.37 1096.25C2446.65 1096.25 2452.51 1094.89 2457.95 1092.17C2463.48 1089.45 2468.16 1085.7 2472.01 1080.92L2479.88 1087.53C2475.2 1093.44 2469.38 1098.08 2462.45 1101.45C2455.51 1104.73 2448.15 1106.38 2440.37 1106.38C2426.4 1106.38 2414.45 1101.45 2404.51 1091.61C2394.66 1081.67 2389.74 1069.72 2389.74 1055.75C2389.74 1041.78 2394.66 1029.88 2404.51 1020.03C2414.45 1010.09 2426.4 1005.12 2440.37 1005.12C2448.24 1005.12 2455.65 1006.86 2462.59 1010.33C2469.52 1013.7 2475.34 1018.34 2480.02 1024.25ZM2495.77 1011.59L2487.76 1017.78C2482.13 1010.66 2475.15 1005.08 2466.8 1001.05C2458.55 997.016 2449.74 995 2440.37 995C2423.59 995 2409.24 1000.95 2397.34 1012.86C2385.52 1024.77 2379.62 1039.06 2379.62 1055.75C2379.62 1072.44 2385.52 1086.73 2397.34 1098.64C2409.24 1110.55 2423.59 1116.5 2440.37 1116.5C2449.74 1116.5 2458.6 1114.48 2466.95 1110.45C2475.29 1106.33 2482.27 1100.7 2487.9 1093.58L2495.63 1100.05C2489.07 1108.3 2480.96 1114.81 2471.3 1119.59C2461.65 1124.28 2451.34 1126.62 2440.37 1126.62C2427.52 1126.62 2415.66 1123.48 2404.79 1117.2C2393.91 1110.83 2385.29 1102.2 2378.91 1091.33C2372.63 1080.45 2369.49 1068.59 2369.49 1055.75C2369.49 1042.91 2372.63 1031.05 2378.91 1020.17C2385.29 1009.3 2393.91 1000.72 2404.79 994.438C2415.66 988.062 2427.52 984.875 2440.37 984.875C2451.34 984.875 2461.65 987.266 2471.3 992.047C2481.05 996.734 2489.21 1003.25 2495.77 1011.59ZM2511.66 998.938L2503.79 1005.27C2496.2 995.797 2486.87 988.344 2475.8 982.906C2464.74 977.469 2452.93 974.75 2440.37 974.75C2429.4 974.75 2418.9 976.906 2408.87 981.219C2398.93 985.438 2390.3 991.203 2382.99 998.516C2375.77 1005.73 2370.01 1014.36 2365.7 1024.39C2361.48 1034.33 2359.37 1044.78 2359.37 1055.75C2359.37 1066.72 2361.48 1077.22 2365.7 1087.25C2370.01 1097.19 2375.77 1105.81 2382.99 1113.12C2390.3 1120.34 2398.93 1126.11 2408.87 1130.42C2418.9 1134.64 2429.4 1136.75 2440.37 1136.75C2452.93 1136.75 2464.74 1134.03 2475.8 1128.59C2486.87 1123.16 2496.2 1115.7 2503.79 1106.23L2511.38 1112.84C2502.85 1123.44 2492.4 1131.78 2480.02 1137.88C2467.65 1143.88 2454.43 1146.88 2440.37 1146.88C2427.99 1146.88 2416.18 1144.48 2404.93 1139.7C2393.68 1134.83 2383.98 1128.36 2375.82 1120.3C2367.76 1112.14 2361.29 1102.44 2356.41 1091.19C2351.63 1079.94 2349.24 1068.12 2349.24 1055.75C2349.24 1043.38 2351.63 1031.56 2356.41 1020.31C2361.29 1009.06 2367.76 999.406 2375.82 991.344C2383.98 983.188 2393.68 976.719 2404.93 971.938C2416.18 967.062 2427.99 964.625 2440.37 964.625C2454.52 964.625 2467.79 967.672 2480.16 973.766C2492.63 979.859 2503.13 988.25 2511.66 998.938ZM2527.41 986.281L2519.26 992.328C2509.79 980.609 2498.16 971.375 2484.38 964.625C2470.7 957.875 2456.02 954.5 2440.37 954.5C2426.68 954.5 2413.55 957.172 2400.99 962.516C2388.52 967.859 2377.74 975.078 2368.65 984.172C2359.65 993.172 2352.48 1003.95 2347.13 1016.52C2341.79 1028.98 2339.12 1042.06 2339.12 1055.75C2339.12 1069.44 2341.79 1082.56 2347.13 1095.12C2352.48 1107.59 2359.65 1118.38 2368.65 1127.47C2377.74 1136.47 2388.52 1143.64 2400.99 1148.98C2413.55 1154.33 2426.68 1157 2440.37 1157C2456.02 1157 2470.7 1153.62 2484.38 1146.88C2498.16 1140.12 2509.79 1130.89 2519.26 1119.17L2527.27 1125.36C2516.87 1138.3 2504.07 1148.52 2488.88 1156.02C2473.79 1163.42 2457.62 1167.12 2440.37 1167.12C2425.27 1167.12 2410.84 1164.17 2397.05 1158.27C2383.37 1152.36 2371.55 1144.44 2361.62 1134.5C2351.68 1124.56 2343.76 1112.75 2337.85 1099.06C2331.95 1085.28 2328.99 1070.84 2328.99 1055.75C2328.99 1040.66 2331.95 1026.27 2337.85 1012.58C2343.76 998.797 2351.68 986.938 2361.62 977C2371.55 967.062 2383.37 959.141 2397.05 953.234C2410.84 947.328 2425.27 944.375 2440.37 944.375C2457.62 944.375 2473.84 948.125 2489.02 955.625C2504.21 963.031 2517.01 973.25 2527.41 986.281ZM2679.57 1067.28V954.5H2689.7V1067.28C2689.7 1077.97 2685.57 1087.16 2677.32 1094.84C2669.16 1102.53 2659.32 1106.38 2647.79 1106.38C2636.26 1106.38 2626.37 1102.53 2618.12 1094.84C2609.96 1087.16 2605.88 1077.97 2605.88 1067.28V954.5H2616.01V1067.28C2616.01 1075.25 2619.1 1082.09 2625.29 1087.81C2631.57 1093.44 2639.07 1096.25 2647.79 1096.25C2656.51 1096.25 2663.96 1093.44 2670.15 1087.81C2676.43 1082.09 2679.57 1075.25 2679.57 1067.28ZM2699.82 1067.28V954.5H2709.95V1067.28C2709.95 1083.69 2703.85 1097.7 2691.66 1109.33C2679.48 1120.86 2664.85 1126.62 2647.79 1126.62C2630.73 1126.62 2616.1 1120.86 2603.91 1109.33C2591.73 1097.7 2585.63 1083.69 2585.63 1067.28V954.5H2595.76V1067.28C2595.76 1080.88 2600.82 1092.5 2610.95 1102.16C2621.16 1111.72 2633.45 1116.5 2647.79 1116.5C2662.04 1116.5 2674.27 1111.72 2684.49 1102.16C2694.71 1092.5 2699.82 1080.88 2699.82 1067.28ZM2720.07 1067.28V954.5H2730.2V1067.28C2730.2 1081.62 2726.49 1094.94 2719.09 1107.22C2711.68 1119.41 2701.65 1129.06 2688.99 1136.19C2676.34 1143.31 2662.6 1146.88 2647.79 1146.88C2632.98 1146.88 2619.24 1143.31 2606.59 1136.19C2593.93 1129.06 2583.9 1119.41 2576.49 1107.22C2569.09 1094.94 2565.38 1081.62 2565.38 1067.28V954.5H2575.51V1067.28C2575.51 1079.75 2578.74 1091.33 2585.21 1102.02C2591.68 1112.7 2600.45 1121.19 2611.51 1127.47C2622.66 1133.66 2634.76 1136.75 2647.79 1136.75C2660.82 1136.75 2672.87 1133.66 2683.93 1127.47C2695.09 1121.19 2703.9 1112.7 2710.37 1102.02C2716.84 1091.33 2720.07 1079.75 2720.07 1067.28ZM2740.32 1067.28V954.5H2750.45V1067.28C2750.45 1080.78 2747.73 1093.72 2742.29 1106.09C2736.85 1118.38 2729.54 1128.97 2720.35 1137.88C2711.16 1146.78 2700.24 1153.86 2687.59 1159.11C2674.93 1164.45 2661.66 1167.12 2647.79 1167.12C2633.91 1167.12 2620.65 1164.45 2607.99 1159.11C2595.34 1153.86 2584.41 1146.78 2575.23 1137.88C2566.04 1128.97 2558.73 1118.38 2553.29 1106.09C2547.85 1093.72 2545.13 1080.78 2545.13 1067.28V954.5H2555.26V1067.28C2555.26 1083.41 2559.38 1098.36 2567.63 1112.14C2575.98 1125.92 2587.23 1136.84 2601.38 1144.91C2615.63 1152.97 2631.1 1157 2647.79 1157C2664.48 1157 2679.9 1152.97 2694.05 1144.91C2708.3 1136.84 2719.55 1125.92 2727.8 1112.14C2736.15 1098.36 2740.32 1083.41 2740.32 1067.28ZM2868.99 1060.67H2852.96C2833.27 1060.67 2818.13 1056.69 2807.54 1048.72C2796.95 1040.66 2791.65 1029.59 2791.65 1015.53C2791.65 1002.41 2797.88 991.484 2810.35 982.766C2822.82 973.953 2840.3 969.547 2862.8 969.547C2877.8 969.547 2891.77 971.609 2904.71 975.734C2917.74 979.859 2928.57 985.672 2937.2 993.172L2929.32 999.5C2921.63 993.219 2911.98 988.344 2900.35 984.875C2888.73 981.406 2876.21 979.672 2862.8 979.672C2843.02 979.672 2827.88 983.047 2817.38 989.797C2806.98 996.547 2801.77 1005.12 2801.77 1015.53C2801.77 1026.78 2806.04 1035.45 2814.57 1041.55C2823.2 1047.55 2835.99 1050.55 2852.96 1050.55H2868.43C2888.4 1050.55 2903.68 1054.58 2914.27 1062.64C2924.96 1070.61 2930.3 1081.62 2930.3 1095.69C2930.3 1108.81 2924.07 1119.78 2911.6 1128.59C2899.13 1137.31 2881.65 1141.67 2859.15 1141.67C2844.15 1141.67 2830.13 1139.61 2817.1 1135.48C2804.16 1131.36 2793.38 1125.55 2784.76 1118.05L2792.63 1111.72C2800.32 1118 2809.98 1122.88 2821.6 1126.34C2833.23 1129.81 2845.74 1131.55 2859.15 1131.55C2878.93 1131.55 2894.02 1128.17 2904.43 1121.42C2914.93 1114.67 2920.18 1106.09 2920.18 1095.69C2920.18 1084.44 2915.87 1075.81 2907.24 1069.81C2898.71 1063.72 2885.96 1060.67 2868.99 1060.67ZM2868.99 1080.92H2852.96C2826.9 1080.92 2806.79 1075.02 2792.63 1063.2C2778.48 1051.3 2771.4 1035.41 2771.4 1015.53C2771.4 1006.44 2773.41 997.906 2777.45 989.938C2781.48 981.969 2787.24 974.984 2794.74 968.984C2802.34 962.891 2811.99 958.109 2823.71 954.641C2835.43 951.078 2848.46 949.297 2862.8 949.297C2880.9 949.297 2897.82 952.062 2913.57 957.594C2929.32 963.031 2942.45 970.672 2952.95 980.516L2944.79 986.562C2935.23 977.938 2923.27 971.281 2908.93 966.594C2894.59 961.812 2879.21 959.422 2862.8 959.422C2837.49 959.422 2817.62 964.766 2803.18 975.453C2788.74 986.141 2781.52 999.5 2781.52 1015.53C2781.52 1032.5 2787.71 1045.95 2800.09 1055.89C2812.46 1065.83 2830.09 1070.8 2852.96 1070.8H2868.43C2896.18 1070.8 2910.05 1079.09 2910.05 1095.69C2910.05 1103.19 2905.79 1109.38 2897.26 1114.25C2888.82 1119.03 2876.12 1121.42 2859.15 1121.42C2847.24 1121.42 2836.18 1120.06 2825.96 1117.34C2815.74 1114.53 2807.3 1110.55 2800.65 1105.39L2808.66 1099.2C2820.38 1107.27 2837.21 1111.3 2859.15 1111.3C2873.21 1111.3 2883.52 1109.84 2890.09 1106.94C2896.65 1104.03 2899.93 1100.28 2899.93 1095.69C2899.93 1090.34 2897.63 1086.55 2893.04 1084.3C2888.45 1082.05 2880.43 1080.92 2868.99 1080.92ZM2868.99 1040.42H2852.96C2825.59 1040.42 2811.9 1032.12 2811.9 1015.53C2811.9 1008.03 2816.12 1001.89 2824.55 997.109C2833.09 992.234 2845.84 989.797 2862.8 989.797C2874.71 989.797 2885.77 991.203 2895.99 994.016C2906.21 996.734 2914.65 1000.67 2921.3 1005.83L2913.29 1012.02C2901.57 1003.95 2884.74 999.922 2862.8 999.922C2848.74 999.922 2838.43 1001.38 2831.87 1004.28C2825.3 1007.19 2822.02 1010.94 2822.02 1015.53C2822.02 1020.88 2824.32 1024.67 2828.91 1026.92C2833.51 1029.17 2841.52 1030.3 2852.96 1030.3H2868.99C2895.05 1030.3 2915.16 1036.25 2929.32 1048.16C2943.48 1059.97 2950.55 1075.81 2950.55 1095.69C2950.55 1104.78 2948.54 1113.31 2944.51 1121.28C2940.48 1129.25 2934.66 1136.28 2927.07 1142.38C2919.57 1148.38 2909.96 1153.16 2898.24 1156.72C2886.52 1160.19 2873.49 1161.92 2859.15 1161.92C2841.05 1161.92 2824.13 1159.2 2808.38 1153.77C2792.63 1148.23 2779.51 1140.55 2769.01 1130.7L2777.16 1124.66C2786.73 1133.28 2798.68 1139.98 2813.02 1144.77C2827.37 1149.45 2842.74 1151.8 2859.15 1151.8C2884.46 1151.8 2904.34 1146.45 2918.77 1135.77C2933.21 1125.08 2940.43 1111.72 2940.43 1095.69C2940.43 1078.72 2934.24 1065.27 2921.87 1055.33C2909.49 1045.39 2891.87 1040.42 2868.99 1040.42Z" fill="white"/>
<path d="M1884.76 832.766C1884.76 827.119 1885.72 821.85 1887.65 816.959C1889.58 812.07 1892.29 807.809 1895.76 804.179C1899.24 800.549 1903.39 797.7 1908.23 795.633C1913.07 793.566 1918.37 792.532 1924.14 792.532C1928.51 792.532 1932.49 793.163 1936.07 794.422C1939.64 795.683 1943.11 797.751 1946.45 800.624V794.044H1966.06V871.488H1946.45V864.908C1943.11 867.782 1939.64 869.849 1936.07 871.109C1932.49 872.37 1928.51 873 1924.14 873C1918.37 873 1913.07 871.967 1908.23 869.899C1903.39 867.833 1899.24 864.984 1895.76 861.354C1892.29 857.723 1889.58 853.463 1887.65 848.572C1885.72 843.682 1884.76 838.414 1884.76 832.766ZM1926.69 854.925C1928.23 854.925 1929.85 854.762 1931.55 854.434C1933.25 854.106 1934.96 853.551 1936.69 852.77C1938.41 851.988 1940.1 850.942 1941.74 849.631C1943.39 848.32 1944.96 846.707 1946.45 844.791V820.741C1944.96 818.826 1943.39 817.225 1941.74 815.939C1940.09 814.654 1938.41 813.607 1936.68 812.8C1934.96 811.993 1933.25 811.426 1931.55 811.099C1929.85 810.771 1928.23 810.608 1926.69 810.607C1923.65 810.607 1920.8 811.161 1918.15 812.271C1915.5 813.38 1913.2 814.931 1911.24 816.922C1909.29 818.914 1907.75 821.258 1906.65 823.956C1905.54 826.653 1904.99 829.59 1904.99 832.766C1904.99 835.943 1905.54 838.879 1906.65 841.577C1907.75 844.274 1909.29 846.619 1911.24 848.61C1913.2 850.603 1915.5 852.152 1918.15 853.262C1920.8 854.37 1923.65 854.925 1926.69 854.925ZM2015.09 811.65C2005.8 811.716 1997.73 818.059 1997.73 827.473V871.488H1978.11V828.002C1978.22 809.868 1994.26 792.776 2014.81 792.532H2015.36C2035.91 792.776 2051.95 809.868 2052.06 828.002V871.488H2032.44V827.473C2032.44 818.059 2024.37 811.716 2015.08 811.65H2015.09ZM2061.34 832.766C2061.34 827.119 2062.31 821.85 2064.24 816.959C2066.17 812.07 2068.87 807.809 2072.34 804.179C2075.82 800.549 2079.98 797.7 2084.81 795.633C2089.65 793.566 2094.95 792.532 2100.72 792.532C2105.1 792.532 2109.09 793.163 2112.69 794.422C2116.29 795.683 2119.74 797.725 2123.04 800.549V770.827H2142.65V871.488H2123.04V864.984C2119.74 867.857 2116.29 869.912 2112.69 871.147C2109.09 872.383 2105.1 873 2100.72 873C2094.95 873 2089.65 871.967 2084.81 869.899C2079.98 867.833 2075.82 864.984 2072.34 861.354C2068.87 857.724 2066.17 853.463 2064.24 848.572C2062.31 843.682 2061.34 838.414 2061.34 832.766ZM2103.27 854.925C2104.81 854.925 2106.43 854.762 2108.13 854.434C2109.83 854.106 2111.54 853.551 2113.27 852.77C2114.99 851.988 2116.68 850.942 2118.33 849.631C2119.97 848.32 2121.54 846.707 2123.04 844.791V820.741C2121.54 818.826 2119.97 817.225 2118.33 815.939C2116.68 814.654 2114.99 813.607 2113.27 812.8C2111.54 811.993 2109.83 811.426 2108.13 811.099C2106.43 810.771 2104.81 810.608 2103.27 810.607C2100.23 810.607 2097.39 811.161 2094.74 812.271C2092.08 813.38 2089.78 814.931 2087.83 816.922C2085.87 818.914 2084.34 821.258 2083.23 823.956C2082.12 826.653 2081.57 829.59 2081.57 832.766C2081.57 835.943 2082.12 838.879 2083.23 841.577C2084.34 844.274 2085.87 846.619 2087.83 848.61C2089.78 850.603 2092.08 852.152 2094.74 853.262C2097.39 854.37 2100.23 854.925 2103.27 854.925ZM2234.49 854.925C2237.43 854.925 2240.19 854.383 2242.79 853.299C2245.35 852.242 2247.66 850.685 2249.59 848.724C2251.52 846.758 2253.04 844.426 2254.14 841.728C2255.25 839.031 2255.8 836.044 2255.8 832.766C2255.8 829.539 2255.24 826.577 2254.11 823.88C2252.97 821.182 2251.43 818.85 2249.47 816.884C2247.53 814.93 2245.23 813.363 2242.68 812.271C2240.1 811.161 2237.37 810.608 2234.49 810.607C2231.56 810.607 2228.79 811.161 2226.19 812.271C2223.64 813.35 2221.33 814.919 2219.4 816.884C2217.47 818.85 2215.94 821.182 2214.8 823.88C2213.67 826.577 2213.1 829.539 2213.1 832.767C2213.1 836.043 2213.66 839.031 2214.76 841.728C2215.87 844.426 2217.39 846.758 2219.32 848.724C2221.24 850.685 2223.56 852.242 2226.11 853.299C2228.71 854.383 2231.51 854.925 2234.49 854.925ZM2234.49 873C2228.78 873 2223.4 871.992 2218.35 869.975C2213.31 867.959 2208.9 865.148 2205.11 861.542C2201.33 857.938 2198.34 853.677 2196.16 848.762C2193.97 843.845 2192.87 838.514 2192.87 832.766C2192.87 827.17 2193.97 821.925 2196.16 817.036C2198.34 812.145 2201.32 807.885 2205.07 804.255C2208.83 800.624 2213.25 797.763 2218.32 795.67C2223.39 793.579 2228.78 792.532 2234.49 792.532C2240.21 792.532 2245.59 793.579 2250.63 795.67C2255.68 797.763 2260.08 800.624 2263.83 804.255C2267.59 807.885 2270.56 812.146 2272.75 817.036C2274.94 821.926 2276.03 827.17 2276.03 832.766C2276.03 838.514 2274.94 843.845 2272.75 848.762C2270.57 853.677 2267.58 857.938 2263.8 861.542C2260.01 865.148 2255.61 867.959 2250.59 869.975C2245.57 871.992 2240.21 873 2234.49 873ZM2294.63 787.981C2293.04 787.981 2291.54 787.677 2290.12 787.068C2288.73 786.478 2287.47 785.636 2286.4 784.588C2285.33 783.538 2284.47 782.301 2283.87 780.94C2283.24 779.549 2282.93 778.045 2282.93 776.526C2282.93 774.97 2283.24 773.487 2283.87 772.077C2284.46 770.702 2285.32 769.451 2286.4 768.393C2287.47 767.345 2288.73 766.503 2290.12 765.912C2291.54 765.303 2293.08 764.992 2294.63 765C2296.22 765 2297.73 765.304 2299.17 765.912C2300.58 766.497 2301.85 767.339 2302.93 768.393C2304.01 769.451 2304.87 770.702 2305.47 772.077C2306.09 773.487 2306.4 774.97 2306.4 776.527C2306.4 778.083 2306.09 779.554 2305.47 780.941C2304.86 782.302 2304 783.539 2302.93 784.588C2301.85 785.642 2300.58 786.484 2299.17 787.068C2297.74 787.676 2296.19 787.986 2294.63 787.981ZM2284.82 794.044H2304.43V871.488H2284.82V794.044ZM2313.45 832.766C2313.45 827.119 2314.42 821.85 2316.35 816.959C2318.28 812.07 2320.98 807.809 2324.45 804.179C2327.93 800.549 2332.09 797.7 2336.92 795.633C2341.76 793.566 2347.06 792.532 2352.83 792.532C2357.21 792.532 2361.2 793.163 2364.8 794.422C2368.4 795.683 2371.85 797.725 2375.15 800.549V770.827H2394.76V871.488H2375.15V864.984C2371.85 867.857 2368.4 869.912 2364.8 871.147C2361.19 872.383 2357.21 873 2352.83 873C2347.06 873 2341.76 871.967 2336.92 869.899C2332.09 867.833 2327.93 864.984 2324.45 861.354C2320.98 857.724 2318.28 853.463 2316.35 848.572C2314.42 843.682 2313.45 838.414 2313.45 832.766ZM2355.38 854.925C2356.92 854.925 2358.54 854.762 2360.24 854.434C2361.94 854.106 2363.65 853.551 2365.38 852.77C2367.1 851.988 2368.79 850.942 2370.43 849.631C2372.08 848.32 2373.65 846.707 2375.15 844.791V820.741C2373.65 818.826 2372.08 817.225 2370.43 815.939C2368.79 814.654 2367.1 813.607 2365.38 812.8C2363.65 811.993 2361.94 811.426 2360.24 811.099C2358.54 810.771 2356.92 810.608 2355.38 810.607C2352.34 810.607 2349.5 811.161 2346.85 812.271C2344.19 813.38 2341.89 814.931 2339.94 816.922C2337.98 818.914 2336.45 821.258 2335.34 823.956C2334.23 826.653 2333.68 829.59 2333.68 832.766C2333.68 835.943 2334.23 838.879 2335.34 841.577C2336.45 844.274 2337.98 846.619 2339.94 848.61C2341.89 850.603 2344.2 852.152 2346.85 853.262C2349.5 854.37 2352.34 854.925 2355.38 854.925ZM2191.01 811.417C2177.86 811.417 2172.07 818.059 2172.07 827.473V871.488H2152.45V828.002C2152.56 809.868 2163.26 792.041 2191.01 792.041" fill="white"/>
<path d="M1920.67 1273.4H1893.89L1888.34 1286H1880.93L1903.75 1235.6H1910.88L1933.78 1286H1926.22L1920.67 1273.4ZM1918.15 1267.64L1907.28 1242.94L1896.41 1267.64H1918.15ZM1960.66 1247.48C1965.51 1247.48 1969.35 1248.9 1972.18 1251.73C1975.06 1254.51 1976.5 1258.62 1976.5 1264.04V1286H1969.59V1264.83C1969.59 1261.14 1968.7 1258.35 1966.93 1256.48C1965.15 1254.61 1962.61 1253.67 1959.29 1253.67C1955.55 1253.67 1952.6 1254.78 1950.44 1256.98C1948.28 1259.14 1947.2 1262.26 1947.2 1266.34V1286H1940.29V1247.84H1946.91V1253.6C1948.3 1251.63 1950.17 1250.12 1952.53 1249.06C1954.93 1248.01 1957.64 1247.48 1960.66 1247.48ZM2022.53 1247.48C2027.81 1247.48 2031.84 1248.78 2034.62 1251.37C2037.45 1253.96 2038.87 1257.82 2038.87 1262.96V1286H2032.32V1280.96C2031.17 1282.74 2029.51 1284.1 2027.35 1285.06C2025.24 1285.98 2022.72 1286.43 2019.79 1286.43C2015.52 1286.43 2012.09 1285.4 2009.49 1283.34C2006.95 1281.27 2005.68 1278.56 2005.68 1275.2C2005.68 1271.84 2006.9 1269.15 2009.35 1267.14C2011.8 1265.07 2015.69 1264.04 2021.01 1264.04H2031.96V1262.67C2031.96 1259.7 2031.09 1257.42 2029.37 1255.83C2027.64 1254.25 2025.09 1253.46 2021.73 1253.46C2019.48 1253.46 2017.27 1253.84 2015.11 1254.61C2012.95 1255.33 2011.13 1256.31 2009.64 1257.56L2006.76 1252.38C2008.73 1250.79 2011.08 1249.59 2013.81 1248.78C2016.55 1247.91 2019.45 1247.48 2022.53 1247.48ZM2020.94 1281.1C2023.58 1281.1 2025.86 1280.53 2027.78 1279.38C2029.7 1278.18 2031.09 1276.5 2031.96 1274.34V1269.01H2021.3C2015.45 1269.01 2012.52 1270.98 2012.52 1274.91C2012.52 1276.83 2013.26 1278.34 2014.75 1279.45C2016.24 1280.55 2018.3 1281.1 2020.94 1281.1ZM2108.7 1247.84L2094.45 1286H2087.82L2076.81 1257.06L2065.65 1286H2059.02L2044.84 1247.84H2051.39L2062.48 1278.22L2074 1247.84H2079.83L2091.13 1278.37L2102.51 1247.84H2108.7ZM2149.15 1267.14C2149.15 1267.66 2149.1 1268.36 2149.01 1269.22H2118.05C2118.48 1272.58 2119.94 1275.3 2122.44 1277.36C2124.98 1279.38 2128.13 1280.38 2131.87 1280.38C2136.43 1280.38 2140.1 1278.85 2142.89 1275.78L2146.7 1280.24C2144.97 1282.26 2142.81 1283.79 2140.22 1284.85C2137.68 1285.9 2134.82 1286.43 2131.65 1286.43C2127.62 1286.43 2124.05 1285.62 2120.93 1283.98C2117.81 1282.3 2115.38 1279.98 2113.65 1277C2111.97 1274.02 2111.13 1270.66 2111.13 1266.92C2111.13 1263.22 2111.95 1259.89 2113.58 1256.91C2115.26 1253.94 2117.54 1251.63 2120.42 1250C2123.35 1248.32 2126.64 1247.48 2130.29 1247.48C2133.93 1247.48 2137.17 1248.32 2140.01 1250C2142.89 1251.63 2145.12 1253.94 2146.7 1256.91C2148.33 1259.89 2149.15 1263.3 2149.15 1267.14ZM2130.29 1253.31C2126.97 1253.31 2124.19 1254.32 2121.93 1256.34C2119.73 1258.35 2118.43 1260.99 2118.05 1264.26H2142.53C2142.14 1261.04 2140.82 1258.42 2138.57 1256.41C2136.36 1254.34 2133.6 1253.31 2130.29 1253.31ZM2169.69 1286.43C2166.57 1286.43 2163.57 1286.02 2160.69 1285.21C2157.81 1284.34 2155.56 1283.26 2153.92 1281.97L2156.8 1276.5C2158.48 1277.7 2160.52 1278.66 2162.92 1279.38C2165.32 1280.1 2167.75 1280.46 2170.2 1280.46C2176.24 1280.46 2179.27 1278.73 2179.27 1275.27C2179.27 1274.12 2178.86 1273.21 2178.04 1272.54C2177.23 1271.86 2176.2 1271.38 2174.95 1271.1C2173.75 1270.76 2172.02 1270.4 2169.76 1270.02C2166.69 1269.54 2164.17 1268.98 2162.2 1268.36C2160.28 1267.74 2158.63 1266.68 2157.24 1265.19C2155.84 1263.7 2155.15 1261.62 2155.15 1258.93C2155.15 1255.47 2156.59 1252.71 2159.47 1250.65C2162.35 1248.54 2166.21 1247.48 2171.06 1247.48C2173.6 1247.48 2176.15 1247.79 2178.69 1248.42C2181.24 1249.04 2183.32 1249.88 2184.96 1250.94L2182 1256.41C2178.88 1254.39 2175.21 1253.38 2170.99 1253.38C2168.06 1253.38 2165.83 1253.86 2164.29 1254.82C2162.76 1255.78 2161.99 1257.06 2161.99 1258.64C2161.99 1259.89 2162.42 1260.87 2163.28 1261.59C2164.15 1262.31 2165.2 1262.84 2166.45 1263.18C2167.75 1263.51 2169.55 1263.9 2171.85 1264.33C2174.92 1264.86 2177.4 1265.43 2179.27 1266.06C2181.19 1266.63 2182.82 1267.64 2184.16 1269.08C2185.51 1270.52 2186.18 1272.54 2186.18 1275.13C2186.18 1278.58 2184.69 1281.34 2181.72 1283.41C2178.79 1285.42 2174.78 1286.43 2169.69 1286.43ZM2211.16 1286.43C2207.37 1286.43 2203.96 1285.59 2200.94 1283.91C2197.91 1282.23 2195.54 1279.93 2193.81 1277C2192.13 1274.02 2191.29 1270.66 2191.29 1266.92C2191.29 1263.18 2192.13 1259.84 2193.81 1256.91C2195.54 1253.94 2197.91 1251.63 2200.94 1250C2203.96 1248.32 2207.37 1247.48 2211.16 1247.48C2214.95 1247.48 2218.34 1248.32 2221.31 1250C2224.34 1251.63 2226.69 1253.94 2228.37 1256.91C2230.1 1259.84 2230.96 1263.18 2230.96 1266.92C2230.96 1270.66 2230.1 1274.02 2228.37 1277C2226.69 1279.93 2224.34 1282.23 2221.31 1283.91C2218.34 1285.59 2214.95 1286.43 2211.16 1286.43ZM2211.16 1280.38C2213.61 1280.38 2215.79 1279.83 2217.71 1278.73C2219.68 1277.58 2221.22 1275.99 2222.32 1273.98C2223.43 1271.91 2223.98 1269.56 2223.98 1266.92C2223.98 1264.28 2223.43 1261.95 2222.32 1259.94C2221.22 1257.87 2219.68 1256.29 2217.71 1255.18C2215.79 1254.08 2213.61 1253.53 2211.16 1253.53C2208.71 1253.53 2206.51 1254.08 2204.54 1255.18C2202.62 1256.29 2201.08 1257.87 2199.93 1259.94C2198.83 1261.95 2198.27 1264.28 2198.27 1266.92C2198.27 1269.56 2198.83 1271.91 2199.93 1273.98C2201.08 1275.99 2202.62 1277.58 2204.54 1278.73C2206.51 1279.83 2208.71 1280.38 2211.16 1280.38ZM2288.26 1247.48C2293.06 1247.48 2296.85 1248.87 2299.63 1251.66C2302.46 1254.44 2303.88 1258.57 2303.88 1264.04V1286H2296.97V1264.83C2296.97 1261.14 2296.1 1258.35 2294.38 1256.48C2292.7 1254.61 2290.27 1253.67 2287.1 1253.67C2283.6 1253.67 2280.82 1254.78 2278.75 1256.98C2276.69 1259.14 2275.66 1262.26 2275.66 1266.34V1286H2268.74V1264.83C2268.74 1261.14 2267.88 1258.35 2266.15 1256.48C2264.47 1254.61 2262.05 1253.67 2258.88 1253.67C2255.38 1253.67 2252.59 1254.78 2250.53 1256.98C2248.46 1259.14 2247.43 1262.26 2247.43 1266.34V1286H2240.52V1247.84H2247.14V1253.53C2248.54 1251.56 2250.36 1250.07 2252.62 1249.06C2254.87 1248.01 2257.44 1247.48 2260.32 1247.48C2263.3 1247.48 2265.94 1248.08 2268.24 1249.28C2270.54 1250.48 2272.32 1252.23 2273.57 1254.54C2275.01 1252.33 2277 1250.6 2279.54 1249.35C2282.14 1248.1 2285.04 1247.48 2288.26 1247.48ZM2351.3 1267.14C2351.3 1267.66 2351.25 1268.36 2351.15 1269.22H2320.19C2320.63 1272.58 2322.09 1275.3 2324.59 1277.36C2327.13 1279.38 2330.27 1280.38 2334.02 1280.38C2338.58 1280.38 2342.25 1278.85 2345.03 1275.78L2348.85 1280.24C2347.12 1282.26 2344.96 1283.79 2342.37 1284.85C2339.83 1285.9 2336.97 1286.43 2333.8 1286.43C2329.77 1286.43 2326.19 1285.62 2323.07 1283.98C2319.95 1282.3 2317.53 1279.98 2315.8 1277C2314.12 1274.02 2313.28 1270.66 2313.28 1266.92C2313.28 1263.22 2314.1 1259.89 2315.73 1256.91C2317.41 1253.94 2319.69 1251.63 2322.57 1250C2325.5 1248.32 2328.79 1247.48 2332.43 1247.48C2336.08 1247.48 2339.32 1248.32 2342.15 1250C2345.03 1251.63 2347.27 1253.94 2348.85 1256.91C2350.48 1259.89 2351.3 1263.3 2351.3 1267.14ZM2332.43 1253.31C2329.12 1253.31 2326.34 1254.32 2324.08 1256.34C2321.87 1258.35 2320.58 1260.99 2320.19 1264.26H2344.67C2344.29 1261.04 2342.97 1258.42 2340.71 1256.41C2338.51 1254.34 2335.75 1253.31 2332.43 1253.31ZM2397.66 1263.61L2388.44 1272.97V1286H2381.24V1235.6H2388.44V1263.75L2415.8 1235.6H2424.01L2402.48 1258.28L2425.38 1286H2416.95L2397.66 1263.61ZM2446.64 1286.43C2442.85 1286.43 2439.44 1285.59 2436.41 1283.91C2433.39 1282.23 2431.01 1279.93 2429.29 1277C2427.61 1274.02 2426.77 1270.66 2426.77 1266.92C2426.77 1263.18 2427.61 1259.84 2429.29 1256.91C2431.01 1253.94 2433.39 1251.63 2436.41 1250C2439.44 1248.32 2442.85 1247.48 2446.64 1247.48C2450.43 1247.48 2453.81 1248.32 2456.79 1250C2459.81 1251.63 2462.17 1253.94 2463.85 1256.91C2465.57 1259.84 2466.44 1263.18 2466.44 1266.92C2466.44 1270.66 2465.57 1274.02 2463.85 1277C2462.17 1279.93 2459.81 1282.23 2456.79 1283.91C2453.81 1285.59 2450.43 1286.43 2446.64 1286.43ZM2446.64 1280.38C2449.09 1280.38 2451.27 1279.83 2453.19 1278.73C2455.16 1277.58 2456.69 1275.99 2457.8 1273.98C2458.9 1271.91 2459.45 1269.56 2459.45 1266.92C2459.45 1264.28 2458.9 1261.95 2457.8 1259.94C2456.69 1257.87 2455.16 1256.29 2453.19 1255.18C2451.27 1254.08 2449.09 1253.53 2446.64 1253.53C2444.19 1253.53 2441.98 1254.08 2440.01 1255.18C2438.09 1256.29 2436.56 1257.87 2435.41 1259.94C2434.3 1261.95 2433.75 1264.28 2433.75 1266.92C2433.75 1269.56 2434.3 1271.91 2435.41 1273.98C2436.56 1275.99 2438.09 1277.58 2440.01 1278.73C2441.98 1279.83 2444.19 1280.38 2446.64 1280.38ZM2497.45 1283.77C2496.45 1284.63 2495.2 1285.3 2493.71 1285.78C2492.22 1286.22 2490.69 1286.43 2489.1 1286.43C2485.26 1286.43 2482.29 1285.4 2480.17 1283.34C2478.06 1281.27 2477.01 1278.32 2477.01 1274.48V1253.53H2470.53V1247.84H2477.01V1239.49H2483.92V1247.84H2494.86V1253.53H2483.92V1274.19C2483.92 1276.26 2484.42 1277.84 2485.43 1278.94C2486.49 1280.05 2487.97 1280.6 2489.89 1280.6C2492.01 1280.6 2493.81 1280 2495.29 1278.8L2497.45 1283.77ZM2505.81 1232.58H2512.72V1286H2505.81V1232.58ZM2525.92 1247.84H2532.83V1286H2525.92V1247.84ZM2529.38 1240.5C2528.03 1240.5 2526.9 1240.06 2525.99 1239.2C2525.13 1238.34 2524.7 1237.28 2524.7 1236.03C2524.7 1234.78 2525.13 1233.73 2525.99 1232.86C2526.9 1231.95 2528.03 1231.5 2529.38 1231.5C2530.72 1231.5 2531.82 1231.93 2532.69 1232.79C2533.6 1233.61 2534.06 1234.64 2534.06 1235.89C2534.06 1237.18 2533.6 1238.29 2532.69 1239.2C2531.82 1240.06 2530.72 1240.5 2529.38 1240.5ZM2566.4 1247.48C2571.25 1247.48 2575.09 1248.9 2577.92 1251.73C2580.8 1254.51 2582.24 1258.62 2582.24 1264.04V1286H2575.33V1264.83C2575.33 1261.14 2574.44 1258.35 2572.67 1256.48C2570.89 1254.61 2568.35 1253.67 2565.04 1253.67C2561.29 1253.67 2558.34 1254.78 2556.18 1256.98C2554.02 1259.14 2552.94 1262.26 2552.94 1266.34V1286H2546.03V1247.84H2552.65V1253.6C2554.04 1251.63 2555.92 1250.12 2558.27 1249.06C2560.67 1248.01 2563.38 1247.48 2566.4 1247.48ZM2615.38 1235.6H2636.62C2641.95 1235.6 2646.68 1236.66 2650.8 1238.77C2654.93 1240.88 2658.12 1243.86 2660.38 1247.7C2662.68 1251.49 2663.84 1255.86 2663.84 1260.8C2663.84 1265.74 2662.68 1270.14 2660.38 1273.98C2658.12 1277.77 2654.93 1280.72 2650.8 1282.83C2646.68 1284.94 2641.95 1286 2636.62 1286H2615.38V1235.6ZM2636.19 1279.74C2640.27 1279.74 2643.84 1278.94 2646.92 1277.36C2650.04 1275.78 2652.44 1273.57 2654.12 1270.74C2655.8 1267.86 2656.64 1264.54 2656.64 1260.8C2656.64 1257.06 2655.8 1253.77 2654.12 1250.94C2652.44 1248.06 2650.04 1245.82 2646.92 1244.24C2643.84 1242.66 2640.27 1241.86 2636.19 1241.86H2622.58V1279.74H2636.19ZM2689.55 1286.58C2685.76 1286.58 2682.09 1286 2678.54 1284.85C2675.03 1283.65 2672.27 1282.11 2670.26 1280.24L2672.92 1274.62C2674.84 1276.35 2677.29 1277.77 2680.26 1278.87C2683.29 1279.93 2686.38 1280.46 2689.55 1280.46C2693.73 1280.46 2696.85 1279.76 2698.91 1278.37C2700.98 1276.93 2702.01 1275.03 2702.01 1272.68C2702.01 1270.95 2701.43 1269.56 2700.28 1268.5C2699.18 1267.4 2697.78 1266.56 2696.1 1265.98C2694.47 1265.41 2692.14 1264.76 2689.12 1264.04C2685.33 1263.13 2682.26 1262.22 2679.9 1261.3C2677.6 1260.39 2675.61 1259 2673.93 1257.13C2672.3 1255.21 2671.48 1252.64 2671.48 1249.42C2671.48 1246.74 2672.18 1244.31 2673.57 1242.15C2675.01 1239.99 2677.17 1238.26 2680.05 1236.97C2682.93 1235.67 2686.5 1235.02 2690.78 1235.02C2693.75 1235.02 2696.68 1235.41 2699.56 1236.18C2702.44 1236.94 2704.91 1238.05 2706.98 1239.49L2704.6 1245.25C2702.49 1243.9 2700.23 1242.9 2697.83 1242.22C2695.43 1241.5 2693.08 1241.14 2690.78 1241.14C2686.7 1241.14 2683.62 1241.89 2681.56 1243.38C2679.54 1244.86 2678.54 1246.78 2678.54 1249.14C2678.54 1250.86 2679.11 1252.28 2680.26 1253.38C2681.42 1254.44 2682.83 1255.28 2684.51 1255.9C2686.24 1256.48 2688.57 1257.1 2691.5 1257.78C2695.29 1258.69 2698.34 1259.6 2700.64 1260.51C2702.94 1261.42 2704.91 1262.82 2706.54 1264.69C2708.22 1266.56 2709.06 1269.08 2709.06 1272.25C2709.06 1274.89 2708.34 1277.31 2706.9 1279.52C2705.46 1281.68 2703.28 1283.41 2700.35 1284.7C2697.42 1285.95 2693.82 1286.58 2689.55 1286.58ZM2719.58 1235.6H2726.78V1279.74H2754.07V1286H2719.58V1235.6ZM2780.66 1232.58H2787.57V1286H2780.66V1232.58ZM2800.77 1247.84H2807.68V1286H2800.77V1247.84ZM2804.23 1240.5C2802.88 1240.5 2801.75 1240.06 2800.84 1239.2C2799.98 1238.34 2799.55 1237.28 2799.55 1236.03C2799.55 1234.78 2799.98 1233.73 2800.84 1232.86C2801.75 1231.95 2802.88 1231.5 2804.23 1231.5C2805.57 1231.5 2806.67 1231.93 2807.54 1232.79C2808.45 1233.61 2808.91 1234.64 2808.91 1235.89C2808.91 1237.18 2808.45 1238.29 2807.54 1239.2C2806.67 1240.06 2805.57 1240.5 2804.23 1240.5ZM2841.11 1247.48C2844.81 1247.48 2848.12 1248.3 2851.05 1249.93C2853.98 1251.56 2856.26 1253.84 2857.89 1256.77C2859.57 1259.7 2860.41 1263.08 2860.41 1266.92C2860.41 1270.76 2859.57 1274.17 2857.89 1277.14C2856.26 1280.07 2853.98 1282.35 2851.05 1283.98C2848.12 1285.62 2844.81 1286.43 2841.11 1286.43C2838.28 1286.43 2835.69 1285.88 2833.34 1284.78C2830.98 1283.67 2829.04 1282.06 2827.5 1279.95V1286H2820.88V1232.58H2827.79V1253.6C2829.33 1251.58 2831.25 1250.07 2833.55 1249.06C2835.86 1248.01 2838.38 1247.48 2841.11 1247.48ZM2840.54 1280.38C2842.98 1280.38 2845.17 1279.83 2847.09 1278.73C2849.06 1277.58 2850.59 1275.99 2851.7 1273.98C2852.85 1271.91 2853.42 1269.56 2853.42 1266.92C2853.42 1264.28 2852.85 1261.95 2851.7 1259.94C2850.59 1257.87 2849.06 1256.29 2847.09 1255.18C2845.17 1254.08 2842.98 1253.53 2840.54 1253.53C2838.14 1253.53 2835.95 1254.08 2833.98 1255.18C2832.02 1256.29 2830.48 1257.87 2829.38 1259.94C2828.27 1261.95 2827.72 1264.28 2827.72 1266.92C2827.72 1269.56 2828.27 1271.91 2829.38 1273.98C2830.48 1275.99 2832.02 1277.58 2833.98 1278.73C2835.95 1279.83 2838.14 1280.38 2840.54 1280.38ZM2876.58 1254.25C2877.78 1252.04 2879.56 1250.36 2881.91 1249.21C2884.26 1248.06 2887.12 1247.48 2890.48 1247.48V1254.18C2890.09 1254.13 2889.57 1254.1 2888.89 1254.1C2885.15 1254.1 2882.2 1255.23 2880.04 1257.49C2877.93 1259.7 2876.87 1262.86 2876.87 1266.99V1286H2869.96V1247.84H2876.58V1254.25ZM2912.82 1247.48C2918.1 1247.48 2922.14 1248.78 2924.92 1251.37C2927.75 1253.96 2929.17 1257.82 2929.17 1262.96V1286H2922.62V1280.96C2921.46 1282.74 2919.81 1284.1 2917.65 1285.06C2915.54 1285.98 2913.02 1286.43 2910.09 1286.43C2905.82 1286.43 2902.38 1285.4 2899.79 1283.34C2897.25 1281.27 2895.98 1278.56 2895.98 1275.2C2895.98 1271.84 2897.2 1269.15 2899.65 1267.14C2902.1 1265.07 2905.98 1264.04 2911.31 1264.04H2922.26V1262.67C2922.26 1259.7 2921.39 1257.42 2919.66 1255.83C2917.94 1254.25 2915.39 1253.46 2912.03 1253.46C2909.78 1253.46 2907.57 1253.84 2905.41 1254.61C2903.25 1255.33 2901.42 1256.31 2899.94 1257.56L2897.06 1252.38C2899.02 1250.79 2901.38 1249.59 2904.11 1248.78C2906.85 1247.91 2909.75 1247.48 2912.82 1247.48ZM2911.24 1281.1C2913.88 1281.1 2916.16 1280.53 2918.08 1279.38C2920 1278.18 2921.39 1276.5 2922.26 1274.34V1269.01H2911.6C2905.74 1269.01 2902.82 1270.98 2902.82 1274.91C2902.82 1276.83 2903.56 1278.34 2905.05 1279.45C2906.54 1280.55 2908.6 1281.1 2911.24 1281.1ZM2948.58 1254.25C2949.78 1252.04 2951.56 1250.36 2953.91 1249.21C2956.26 1248.06 2959.12 1247.48 2962.48 1247.48V1254.18C2962.09 1254.13 2961.57 1254.1 2960.89 1254.1C2957.15 1254.1 2954.2 1255.23 2952.04 1257.49C2949.93 1259.7 2948.87 1262.86 2948.87 1266.99V1286H2941.96V1247.84H2948.58V1254.25ZM3006.31 1247.84L2987.81 1289.82C2986.18 1293.7 2984.26 1296.44 2982.05 1298.02C2979.89 1299.61 2977.27 1300.4 2974.2 1300.4C2972.33 1300.4 2970.5 1300.09 2968.73 1299.46C2967 1298.89 2965.56 1298.02 2964.41 1296.87L2967.36 1291.69C2969.33 1293.56 2971.61 1294.5 2974.2 1294.5C2975.88 1294.5 2977.27 1294.04 2978.38 1293.13C2979.53 1292.26 2980.56 1290.75 2981.47 1288.59L2982.7 1285.93L2965.85 1247.84H2973.05L2986.37 1278.37L2999.54 1247.84H3006.31ZM3053.55 1283.77C3052.55 1284.63 3051.3 1285.3 3049.81 1285.78C3048.32 1286.22 3046.79 1286.43 3045.2 1286.43C3041.36 1286.43 3038.39 1285.4 3036.27 1283.34C3034.16 1281.27 3033.11 1278.32 3033.11 1274.48V1253.53H3026.63V1247.84H3033.11V1239.49H3040.02V1247.84H3050.96V1253.53H3040.02V1274.19C3040.02 1276.26 3040.52 1277.84 3041.53 1278.94C3042.59 1280.05 3044.07 1280.6 3045.99 1280.6C3048.11 1280.6 3049.91 1280 3051.39 1278.8L3053.55 1283.77ZM3076.99 1286.43C3073.2 1286.43 3069.79 1285.59 3066.77 1283.91C3063.74 1282.23 3061.37 1279.93 3059.64 1277C3057.96 1274.02 3057.12 1270.66 3057.12 1266.92C3057.12 1263.18 3057.96 1259.84 3059.64 1256.91C3061.37 1253.94 3063.74 1251.63 3066.77 1250C3069.79 1248.32 3073.2 1247.48 3076.99 1247.48C3080.78 1247.48 3084.17 1248.32 3087.14 1250C3090.17 1251.63 3092.52 1253.94 3094.2 1256.91C3095.93 1259.84 3096.79 1263.18 3096.79 1266.92C3096.79 1270.66 3095.93 1274.02 3094.2 1277C3092.52 1279.93 3090.17 1282.23 3087.14 1283.91C3084.17 1285.59 3080.78 1286.43 3076.99 1286.43ZM3076.99 1280.38C3079.44 1280.38 3081.62 1279.83 3083.54 1278.73C3085.51 1277.58 3087.05 1275.99 3088.15 1273.98C3089.25 1271.91 3089.81 1269.56 3089.81 1266.92C3089.81 1264.28 3089.25 1261.95 3088.15 1259.94C3087.05 1257.87 3085.51 1256.29 3083.54 1255.18C3081.62 1254.08 3079.44 1253.53 3076.99 1253.53C3074.54 1253.53 3072.33 1254.08 3070.37 1255.18C3068.45 1256.29 3066.91 1257.87 3065.76 1259.94C3064.65 1261.95 3064.1 1264.28 3064.1 1266.92C3064.1 1269.56 3064.65 1271.91 3065.76 1273.98C3066.91 1275.99 3068.45 1277.58 3070.37 1278.73C3072.33 1279.83 3074.54 1280.38 3076.99 1280.38ZM3132.31 1254.25C3133.51 1252.04 3135.28 1250.36 3137.64 1249.21C3139.99 1248.06 3142.84 1247.48 3146.2 1247.48V1254.18C3145.82 1254.13 3145.29 1254.1 3144.62 1254.1C3140.88 1254.1 3137.92 1255.23 3135.76 1257.49C3133.65 1259.7 3132.6 1262.86 3132.6 1266.99V1286H3125.68V1247.84H3132.31V1254.25ZM3188.86 1267.14C3188.86 1267.66 3188.81 1268.36 3188.72 1269.22H3157.76C3158.19 1272.58 3159.65 1275.3 3162.15 1277.36C3164.69 1279.38 3167.84 1280.38 3171.58 1280.38C3176.14 1280.38 3179.81 1278.85 3182.6 1275.78L3186.41 1280.24C3184.68 1282.26 3182.52 1283.79 3179.93 1284.85C3177.39 1285.9 3174.53 1286.43 3171.36 1286.43C3167.33 1286.43 3163.76 1285.62 3160.64 1283.98C3157.52 1282.3 3155.09 1279.98 3153.36 1277C3151.68 1274.02 3150.84 1270.66 3150.84 1266.92C3150.84 1263.22 3151.66 1259.89 3153.29 1256.91C3154.97 1253.94 3157.25 1251.63 3160.13 1250C3163.06 1248.32 3166.35 1247.48 3170 1247.48C3173.64 1247.48 3176.88 1248.32 3179.72 1250C3182.6 1251.63 3184.83 1253.94 3186.41 1256.91C3188.04 1259.89 3188.86 1263.3 3188.86 1267.14ZM3170 1253.31C3166.68 1253.31 3163.9 1254.32 3161.64 1256.34C3159.44 1258.35 3158.14 1260.99 3157.76 1264.26H3182.24C3181.85 1261.04 3180.53 1258.42 3178.28 1256.41C3176.07 1254.34 3173.31 1253.31 3170 1253.31ZM3219.91 1283.77C3218.91 1284.63 3217.66 1285.3 3216.17 1285.78C3214.68 1286.22 3213.15 1286.43 3211.56 1286.43C3207.72 1286.43 3204.75 1285.4 3202.63 1283.34C3200.52 1281.27 3199.47 1278.32 3199.47 1274.48V1253.53H3192.99V1247.84H3199.47V1239.49H3206.38V1247.84H3217.32V1253.53H3206.38V1274.19C3206.38 1276.26 3206.88 1277.84 3207.89 1278.94C3208.95 1280.05 3210.43 1280.6 3212.35 1280.6C3214.47 1280.6 3216.27 1280 3217.75 1278.8L3219.91 1283.77ZM3234.89 1254.25C3236.09 1252.04 3237.87 1250.36 3240.22 1249.21C3242.57 1248.06 3245.43 1247.48 3248.79 1247.48V1254.18C3248.41 1254.13 3247.88 1254.1 3247.21 1254.1C3243.46 1254.1 3240.51 1255.23 3238.35 1257.49C3236.24 1259.7 3235.18 1262.86 3235.18 1266.99V1286H3228.27V1247.84H3234.89V1254.25ZM3257.31 1247.84H3264.22V1286H3257.31V1247.84ZM3260.77 1240.5C3259.42 1240.5 3258.29 1240.06 3257.38 1239.2C3256.52 1238.34 3256.09 1237.28 3256.09 1236.03C3256.09 1234.78 3256.52 1233.73 3257.38 1232.86C3258.29 1231.95 3259.42 1231.5 3260.77 1231.5C3262.11 1231.5 3263.21 1231.93 3264.08 1232.79C3264.99 1233.61 3265.45 1234.64 3265.45 1235.89C3265.45 1237.18 3264.99 1238.29 3264.08 1239.2C3263.21 1240.06 3262.11 1240.5 3260.77 1240.5ZM3311.91 1267.14C3311.91 1267.66 3311.86 1268.36 3311.76 1269.22H3280.8C3281.24 1272.58 3282.7 1275.3 3285.2 1277.36C3287.74 1279.38 3290.88 1280.38 3294.63 1280.38C3299.19 1280.38 3302.86 1278.85 3305.64 1275.78L3309.46 1280.24C3307.73 1282.26 3305.57 1283.79 3302.98 1284.85C3300.44 1285.9 3297.58 1286.43 3294.41 1286.43C3290.38 1286.43 3286.8 1285.62 3283.68 1283.98C3280.56 1282.3 3278.14 1279.98 3276.41 1277C3274.73 1274.02 3273.89 1270.66 3273.89 1266.92C3273.89 1263.22 3274.71 1259.89 3276.34 1256.91C3278.02 1253.94 3280.3 1251.63 3283.18 1250C3286.11 1248.32 3289.4 1247.48 3293.04 1247.48C3296.69 1247.48 3299.93 1248.32 3302.76 1250C3305.64 1251.63 3307.88 1253.94 3309.46 1256.91C3311.09 1259.89 3311.91 1263.3 3311.91 1267.14ZM3293.04 1253.31C3289.73 1253.31 3286.95 1254.32 3284.69 1256.34C3282.48 1258.35 3281.19 1260.99 3280.8 1264.26H3305.28C3304.9 1261.04 3303.58 1258.42 3301.32 1256.41C3299.12 1254.34 3296.36 1253.31 3293.04 1253.31ZM3354.57 1247.84L3337.87 1286H3330.81L3314.11 1247.84H3321.31L3334.41 1278.44L3347.8 1247.84H3354.57ZM3394.45 1267.14C3394.45 1267.66 3394.41 1268.36 3394.31 1269.22H3363.35C3363.78 1272.58 3365.25 1275.3 3367.74 1277.36C3370.29 1279.38 3373.43 1280.38 3377.17 1280.38C3381.73 1280.38 3385.41 1278.85 3388.19 1275.78L3392.01 1280.24C3390.28 1282.26 3388.12 1283.79 3385.53 1284.85C3382.98 1285.9 3380.13 1286.43 3376.96 1286.43C3372.93 1286.43 3369.35 1285.62 3366.23 1283.98C3363.11 1282.3 3360.69 1279.98 3358.96 1277C3357.28 1274.02 3356.44 1270.66 3356.44 1266.92C3356.44 1263.22 3357.25 1259.89 3358.89 1256.91C3360.57 1253.94 3362.85 1251.63 3365.73 1250C3368.65 1248.32 3371.94 1247.48 3375.59 1247.48C3379.24 1247.48 3382.48 1248.32 3385.31 1250C3388.19 1251.63 3390.42 1253.94 3392.01 1256.91C3393.64 1259.89 3394.45 1263.3 3394.45 1267.14ZM3375.59 1253.31C3372.28 1253.31 3369.49 1254.32 3367.24 1256.34C3365.03 1258.35 3363.73 1260.99 3363.35 1264.26H3387.83C3387.45 1261.04 3386.13 1258.42 3383.87 1256.41C3381.66 1254.34 3378.9 1253.31 3375.59 1253.31ZM1887.55 1335.58H1894.46V1389H1887.55V1335.58ZM1924.01 1389.43C1920.21 1389.43 1916.81 1388.59 1913.78 1386.91C1910.76 1385.23 1908.38 1382.93 1906.65 1380C1904.97 1377.02 1904.13 1373.66 1904.13 1369.92C1904.13 1366.18 1904.97 1362.84 1906.65 1359.91C1908.38 1356.94 1910.76 1354.63 1913.78 1353C1916.81 1351.32 1920.21 1350.48 1924.01 1350.48C1927.8 1350.48 1931.18 1351.32 1934.16 1353C1937.18 1354.63 1939.53 1356.94 1941.21 1359.91C1942.94 1362.84 1943.81 1366.18 1943.81 1369.92C1943.81 1373.66 1942.94 1377.02 1941.21 1380C1939.53 1382.93 1937.18 1385.23 1934.16 1386.91C1931.18 1388.59 1927.8 1389.43 1924.01 1389.43ZM1924.01 1383.38C1926.45 1383.38 1928.64 1382.83 1930.56 1381.73C1932.53 1380.58 1934.06 1378.99 1935.17 1376.98C1936.27 1374.91 1936.82 1372.56 1936.82 1369.92C1936.82 1367.28 1936.27 1364.95 1935.17 1362.94C1934.06 1360.87 1932.53 1359.29 1930.56 1358.18C1928.64 1357.08 1926.45 1356.53 1924.01 1356.53C1921.56 1356.53 1919.35 1357.08 1917.38 1358.18C1915.46 1359.29 1913.93 1360.87 1912.77 1362.94C1911.67 1364.95 1911.12 1367.28 1911.12 1369.92C1911.12 1372.56 1911.67 1374.91 1912.77 1376.98C1913.93 1378.99 1915.46 1380.58 1917.38 1381.73C1919.35 1382.83 1921.56 1383.38 1924.01 1383.38ZM1970 1389.43C1966.11 1389.43 1962.63 1388.59 1959.56 1386.91C1956.53 1385.23 1954.16 1382.93 1952.43 1380C1950.7 1377.02 1949.84 1373.66 1949.84 1369.92C1949.84 1366.18 1950.7 1362.84 1952.43 1359.91C1954.16 1356.94 1956.53 1354.63 1959.56 1353C1962.63 1351.32 1966.11 1350.48 1970 1350.48C1973.45 1350.48 1976.52 1351.18 1979.21 1352.57C1981.95 1353.96 1984.06 1355.98 1985.55 1358.62L1980.29 1362C1979.09 1360.18 1977.6 1358.81 1975.83 1357.9C1974.05 1356.98 1972.08 1356.53 1969.92 1356.53C1967.43 1356.53 1965.17 1357.08 1963.16 1358.18C1961.19 1359.29 1959.63 1360.87 1958.48 1362.94C1957.37 1364.95 1956.82 1367.28 1956.82 1369.92C1956.82 1372.61 1957.37 1374.98 1958.48 1377.05C1959.63 1379.06 1961.19 1380.62 1963.16 1381.73C1965.17 1382.83 1967.43 1383.38 1969.92 1383.38C1972.08 1383.38 1974.05 1382.93 1975.83 1382.02C1977.6 1381.1 1979.09 1379.74 1980.29 1377.91L1985.55 1381.22C1984.06 1383.86 1981.95 1385.9 1979.21 1387.34C1976.52 1388.74 1973.45 1389.43 1970 1389.43ZM2008.39 1350.48C2013.67 1350.48 2017.71 1351.78 2020.49 1354.37C2023.32 1356.96 2024.74 1360.82 2024.74 1365.96V1389H2018.19V1383.96C2017.03 1385.74 2015.38 1387.1 2013.22 1388.06C2011.11 1388.98 2008.59 1389.43 2005.66 1389.43C2001.39 1389.43 1997.95 1388.4 1995.36 1386.34C1992.82 1384.27 1991.55 1381.56 1991.55 1378.2C1991.55 1374.84 1992.77 1372.15 1995.22 1370.14C1997.67 1368.07 2001.55 1367.04 2006.88 1367.04H2017.83V1365.67C2017.83 1362.7 2016.96 1360.42 2015.23 1358.83C2013.51 1357.25 2010.96 1356.46 2007.6 1356.46C2005.35 1356.46 2003.14 1356.84 2000.98 1357.61C1998.82 1358.33 1996.99 1359.31 1995.51 1360.56L1992.63 1355.38C1994.59 1353.79 1996.95 1352.59 1999.68 1351.78C2002.42 1350.91 2005.32 1350.48 2008.39 1350.48ZM2006.81 1384.1C2009.45 1384.1 2011.73 1383.53 2013.65 1382.38C2015.57 1381.18 2016.96 1379.5 2017.83 1377.34V1372.01H2007.17C2001.31 1372.01 1998.39 1373.98 1998.39 1377.91C1998.39 1379.83 1999.13 1381.34 2000.62 1382.45C2002.11 1383.55 2004.17 1384.1 2006.81 1384.1ZM2058.98 1386.77C2057.98 1387.63 2056.73 1388.3 2055.24 1388.78C2053.75 1389.22 2052.22 1389.43 2050.63 1389.43C2046.79 1389.43 2043.82 1388.4 2041.7 1386.34C2039.59 1384.27 2038.54 1381.32 2038.54 1377.48V1356.53H2032.06V1350.84H2038.54V1342.49H2045.45V1350.84H2056.39V1356.53H2045.45V1377.19C2045.45 1379.26 2045.95 1380.84 2046.96 1381.94C2048.02 1383.05 2049.5 1383.6 2051.42 1383.6C2053.54 1383.6 2055.34 1383 2056.82 1381.8L2058.98 1386.77ZM2067.34 1350.84H2074.25V1389H2067.34V1350.84ZM2070.8 1343.5C2069.45 1343.5 2068.33 1343.06 2067.41 1342.2C2066.55 1341.34 2066.12 1340.28 2066.12 1339.03C2066.12 1337.78 2066.55 1336.73 2067.41 1335.86C2068.33 1334.95 2069.45 1334.5 2070.8 1334.5C2072.14 1334.5 2073.25 1334.93 2074.11 1335.79C2075.02 1336.61 2075.48 1337.64 2075.48 1338.89C2075.48 1340.18 2075.02 1341.29 2074.11 1342.2C2073.25 1343.06 2072.14 1343.5 2070.8 1343.5ZM2103.79 1389.43C2100 1389.43 2096.59 1388.59 2093.57 1386.91C2090.55 1385.23 2088.17 1382.93 2086.44 1380C2084.76 1377.02 2083.92 1373.66 2083.92 1369.92C2083.92 1366.18 2084.76 1362.84 2086.44 1359.91C2088.17 1356.94 2090.55 1354.63 2093.57 1353C2096.59 1351.32 2100 1350.48 2103.79 1350.48C2107.59 1350.48 2110.97 1351.32 2113.95 1353C2116.97 1354.63 2119.32 1356.94 2121 1359.91C2122.73 1362.84 2123.59 1366.18 2123.59 1369.92C2123.59 1373.66 2122.73 1377.02 2121 1380C2119.32 1382.93 2116.97 1385.23 2113.95 1386.91C2110.97 1388.59 2107.59 1389.43 2103.79 1389.43ZM2103.79 1383.38C2106.24 1383.38 2108.43 1382.83 2110.35 1381.73C2112.31 1380.58 2113.85 1378.99 2114.95 1376.98C2116.06 1374.91 2116.61 1372.56 2116.61 1369.92C2116.61 1367.28 2116.06 1364.95 2114.95 1362.94C2113.85 1360.87 2112.31 1359.29 2110.35 1358.18C2108.43 1357.08 2106.24 1356.53 2103.79 1356.53C2101.35 1356.53 2099.14 1357.08 2097.17 1358.18C2095.25 1359.29 2093.71 1360.87 2092.56 1362.94C2091.46 1364.95 2090.91 1367.28 2090.91 1369.92C2090.91 1372.56 2091.46 1374.91 2092.56 1376.98C2093.71 1378.99 2095.25 1380.58 2097.17 1381.73C2099.14 1382.83 2101.35 1383.38 2103.79 1383.38ZM2153.53 1350.48C2158.38 1350.48 2162.22 1351.9 2165.05 1354.73C2167.93 1357.51 2169.37 1361.62 2169.37 1367.04V1389H2162.46V1367.83C2162.46 1364.14 2161.57 1361.35 2159.79 1359.48C2158.02 1357.61 2155.47 1356.67 2152.16 1356.67C2148.42 1356.67 2145.47 1357.78 2143.31 1359.98C2141.15 1362.14 2140.07 1365.26 2140.07 1369.34V1389H2133.15V1350.84H2139.78V1356.6C2141.17 1354.63 2143.04 1353.12 2145.39 1352.06C2147.79 1351.01 2150.51 1350.48 2153.53 1350.48ZM2259.24 1350.84L2244.99 1389H2238.36L2227.35 1360.06L2216.19 1389H2209.56L2195.38 1350.84H2201.93L2213.02 1381.22L2224.54 1350.84H2230.37L2241.67 1381.37L2253.05 1350.84H2259.24ZM2266.26 1350.84H2273.17V1389H2266.26V1350.84ZM2269.71 1343.5C2268.37 1343.5 2267.24 1343.06 2266.33 1342.2C2265.46 1341.34 2265.03 1340.28 2265.03 1339.03C2265.03 1337.78 2265.46 1336.73 2266.33 1335.86C2267.24 1334.95 2268.37 1334.5 2269.71 1334.5C2271.06 1334.5 2272.16 1334.93 2273.02 1335.79C2273.94 1336.61 2274.39 1337.64 2274.39 1338.89C2274.39 1340.18 2273.94 1341.29 2273.02 1342.2C2272.16 1343.06 2271.06 1343.5 2269.71 1343.5ZM2307.82 1386.77C2306.81 1387.63 2305.56 1388.3 2304.08 1388.78C2302.59 1389.22 2301.05 1389.43 2299.47 1389.43C2295.63 1389.43 2292.65 1388.4 2290.54 1386.34C2288.43 1384.27 2287.37 1381.32 2287.37 1377.48V1356.53H2280.89V1350.84H2287.37V1342.49H2294.28V1350.84H2305.23V1356.53H2294.28V1377.19C2294.28 1379.26 2294.79 1380.84 2295.8 1381.94C2296.85 1383.05 2298.34 1383.6 2300.26 1383.6C2302.37 1383.6 2304.17 1383 2305.66 1381.8L2307.82 1386.77ZM2336.55 1350.48C2341.4 1350.48 2345.24 1351.9 2348.07 1354.73C2350.95 1357.51 2352.39 1361.62 2352.39 1367.04V1389H2345.48V1367.83C2345.48 1364.14 2344.59 1361.35 2342.82 1359.48C2341.04 1357.61 2338.5 1356.67 2335.19 1356.67C2331.44 1356.67 2328.49 1357.78 2326.33 1359.98C2324.17 1362.14 2323.09 1365.26 2323.09 1369.34V1389H2316.18V1335.58H2323.09V1356.24C2324.53 1354.42 2326.4 1353 2328.71 1351.99C2331.06 1350.98 2333.67 1350.48 2336.55 1350.48ZM2379.62 1403.4C2377.94 1403.4 2376.38 1403.21 2374.94 1402.82C2373.5 1402.44 2372.3 1401.86 2371.34 1401.1L2373.58 1395.77C2375.02 1396.97 2376.89 1397.57 2379.19 1397.57C2381.02 1397.57 2382.41 1396.99 2383.37 1395.84C2384.38 1394.74 2384.88 1393.08 2384.88 1390.87V1350.84H2391.79V1390.73C2391.79 1394.66 2390.74 1397.76 2388.62 1400.02C2386.51 1402.27 2383.51 1403.4 2379.62 1403.4ZM2388.34 1343.5C2386.99 1343.5 2385.86 1343.06 2384.95 1342.2C2384.09 1341.34 2383.66 1340.28 2383.66 1339.03C2383.66 1337.78 2384.09 1336.73 2384.95 1335.86C2385.86 1334.95 2386.99 1334.5 2388.34 1334.5C2389.68 1334.5 2390.78 1334.93 2391.65 1335.79C2392.56 1336.61 2393.02 1337.64 2393.02 1338.89C2393.02 1340.18 2392.56 1341.29 2391.65 1342.2C2390.78 1343.06 2389.68 1343.5 2388.34 1343.5ZM2440.55 1350.84V1389H2434V1383.24C2432.61 1385.21 2430.76 1386.74 2428.45 1387.85C2426.2 1388.9 2423.73 1389.43 2421.04 1389.43C2415.95 1389.43 2411.94 1388.04 2409.01 1385.26C2406.09 1382.42 2404.62 1378.27 2404.62 1372.8V1350.84H2411.53V1372.01C2411.53 1375.7 2412.42 1378.51 2414.2 1380.43C2415.97 1382.3 2418.52 1383.24 2421.83 1383.24C2425.48 1383.24 2428.36 1382.14 2430.47 1379.93C2432.58 1377.72 2433.64 1374.6 2433.64 1370.57V1350.84H2440.55ZM2464.65 1389.43C2461.53 1389.43 2458.53 1389.02 2455.65 1388.21C2452.77 1387.34 2450.52 1386.26 2448.88 1384.97L2451.76 1379.5C2453.44 1380.7 2455.48 1381.66 2457.88 1382.38C2460.28 1383.1 2462.71 1383.46 2465.16 1383.46C2471.2 1383.46 2474.23 1381.73 2474.23 1378.27C2474.23 1377.12 2473.82 1376.21 2473 1375.54C2472.19 1374.86 2471.16 1374.38 2469.91 1374.1C2468.71 1373.76 2466.98 1373.4 2464.72 1373.02C2461.65 1372.54 2459.13 1371.98 2457.16 1371.36C2455.24 1370.74 2453.59 1369.68 2452.2 1368.19C2450.8 1366.7 2450.11 1364.62 2450.11 1361.93C2450.11 1358.47 2451.55 1355.71 2454.43 1353.65C2457.31 1351.54 2461.17 1350.48 2466.02 1350.48C2468.56 1350.48 2471.11 1350.79 2473.65 1351.42C2476.2 1352.04 2478.28 1352.88 2479.92 1353.94L2476.96 1359.41C2473.84 1357.39 2470.17 1356.38 2465.95 1356.38C2463.02 1356.38 2460.79 1356.86 2459.25 1357.82C2457.72 1358.78 2456.95 1360.06 2456.95 1361.64C2456.95 1362.89 2457.38 1363.87 2458.24 1364.59C2459.11 1365.31 2460.16 1365.84 2461.41 1366.18C2462.71 1366.51 2464.51 1366.9 2466.81 1367.33C2469.88 1367.86 2472.36 1368.43 2474.23 1369.06C2476.15 1369.63 2477.78 1370.64 2479.12 1372.08C2480.47 1373.52 2481.14 1375.54 2481.14 1378.13C2481.14 1381.58 2479.65 1384.34 2476.68 1386.41C2473.75 1388.42 2469.74 1389.43 2464.65 1389.43ZM2511.23 1386.77C2510.23 1387.63 2508.98 1388.3 2507.49 1388.78C2506 1389.22 2504.47 1389.43 2502.88 1389.43C2499.04 1389.43 2496.07 1388.4 2493.95 1386.34C2491.84 1384.27 2490.79 1381.32 2490.79 1377.48V1356.53H2484.31V1350.84H2490.79V1342.49H2497.7V1350.84H2508.64V1356.53H2497.7V1377.19C2497.7 1379.26 2498.2 1380.84 2499.21 1381.94C2500.27 1383.05 2501.75 1383.6 2503.67 1383.6C2505.79 1383.6 2507.59 1383 2509.07 1381.8L2511.23 1386.77ZM2555.13 1359.77C2560.07 1360.25 2563.84 1361.78 2566.43 1364.38C2569.02 1366.92 2570.32 1370.18 2570.32 1374.17C2570.32 1377.05 2569.6 1379.66 2568.16 1382.02C2566.72 1384.32 2564.56 1386.17 2561.68 1387.56C2558.85 1388.9 2555.37 1389.58 2551.24 1389.58C2547.64 1389.58 2544.18 1389.05 2540.87 1387.99C2537.56 1386.89 2534.85 1385.38 2532.74 1383.46L2536.05 1377.77C2537.78 1379.4 2539.98 1380.72 2542.67 1381.73C2545.36 1382.69 2548.22 1383.17 2551.24 1383.17C2554.98 1383.17 2557.89 1382.38 2559.95 1380.79C2562.06 1379.21 2563.12 1377.02 2563.12 1374.24C2563.12 1371.46 2562.09 1369.3 2560.02 1367.76C2557.96 1366.22 2554.84 1365.46 2550.66 1365.46H2546.63V1360.42L2559.3 1344.86H2535.04V1338.6H2568.3V1343.5L2555.13 1359.77ZM2599.47 1335.58H2606.38V1389H2599.47V1335.58ZM2619.58 1350.84H2626.49V1389H2619.58V1350.84ZM2623.03 1343.5C2621.69 1343.5 2620.56 1343.06 2619.65 1342.2C2618.78 1341.34 2618.35 1340.28 2618.35 1339.03C2618.35 1337.78 2618.78 1336.73 2619.65 1335.86C2620.56 1334.95 2621.69 1334.5 2623.03 1334.5C2624.38 1334.5 2625.48 1334.93 2626.34 1335.79C2627.26 1336.61 2627.71 1337.64 2627.71 1338.89C2627.71 1340.18 2627.26 1341.29 2626.34 1342.2C2625.48 1343.06 2624.38 1343.5 2623.03 1343.5ZM2660.06 1350.48C2664.91 1350.48 2668.75 1351.9 2671.58 1354.73C2674.46 1357.51 2675.9 1361.62 2675.9 1367.04V1389H2668.99V1367.83C2668.99 1364.14 2668.1 1361.35 2666.32 1359.48C2664.55 1357.61 2662 1356.67 2658.69 1356.67C2654.95 1356.67 2652 1357.78 2649.84 1359.98C2647.68 1362.14 2646.6 1365.26 2646.6 1369.34V1389H2639.68V1350.84H2646.31V1356.6C2647.7 1354.63 2649.57 1353.12 2651.92 1352.06C2654.32 1351.01 2657.04 1350.48 2660.06 1350.48ZM2723.39 1370.14C2723.39 1370.66 2723.34 1371.36 2723.25 1372.22H2692.29C2692.72 1375.58 2694.18 1378.3 2696.68 1380.36C2699.22 1382.38 2702.37 1383.38 2706.11 1383.38C2710.67 1383.38 2714.34 1381.85 2717.13 1378.78L2720.94 1383.24C2719.22 1385.26 2717.06 1386.79 2714.46 1387.85C2711.92 1388.9 2709.06 1389.43 2705.9 1389.43C2701.86 1389.43 2698.29 1388.62 2695.17 1386.98C2692.05 1385.3 2689.62 1382.98 2687.9 1380C2686.22 1377.02 2685.38 1373.66 2685.38 1369.92C2685.38 1366.22 2686.19 1362.89 2687.82 1359.91C2689.5 1356.94 2691.78 1354.63 2694.66 1353C2697.59 1351.32 2700.88 1350.48 2704.53 1350.48C2708.18 1350.48 2711.42 1351.32 2714.25 1353C2717.13 1354.63 2719.36 1356.94 2720.94 1359.91C2722.58 1362.89 2723.39 1366.3 2723.39 1370.14ZM2704.53 1356.31C2701.22 1356.31 2698.43 1357.32 2696.18 1359.34C2693.97 1361.35 2692.67 1363.99 2692.29 1367.26H2716.77C2716.38 1364.04 2715.06 1361.42 2712.81 1359.41C2710.6 1357.34 2707.84 1356.31 2704.53 1356.31ZM2743.93 1389.43C2740.81 1389.43 2737.81 1389.02 2734.93 1388.21C2732.05 1387.34 2729.8 1386.26 2728.17 1384.97L2731.05 1379.5C2732.73 1380.7 2734.77 1381.66 2737.17 1382.38C2739.57 1383.1 2741.99 1383.46 2744.44 1383.46C2750.49 1383.46 2753.51 1381.73 2753.51 1378.27C2753.51 1377.12 2753.1 1376.21 2752.29 1375.54C2751.47 1374.86 2750.44 1374.38 2749.19 1374.1C2747.99 1373.76 2746.26 1373.4 2744.01 1373.02C2740.93 1372.54 2738.41 1371.98 2736.45 1371.36C2734.53 1370.74 2732.87 1369.68 2731.48 1368.19C2730.09 1366.7 2729.39 1364.62 2729.39 1361.93C2729.39 1358.47 2730.83 1355.71 2733.71 1353.65C2736.59 1351.54 2740.45 1350.48 2745.3 1350.48C2747.85 1350.48 2750.39 1350.79 2752.93 1351.42C2755.48 1352.04 2757.57 1352.88 2759.2 1353.94L2756.25 1359.41C2753.13 1357.39 2749.45 1356.38 2745.23 1356.38C2742.3 1356.38 2740.07 1356.86 2738.53 1357.82C2737 1358.78 2736.23 1360.06 2736.23 1361.64C2736.23 1362.89 2736.66 1363.87 2737.53 1364.59C2738.39 1365.31 2739.45 1365.84 2740.69 1366.18C2741.99 1366.51 2743.79 1366.9 2746.09 1367.33C2749.17 1367.86 2751.64 1368.43 2753.51 1369.06C2755.43 1369.63 2757.06 1370.64 2758.41 1372.08C2759.75 1373.52 2760.42 1375.54 2760.42 1378.13C2760.42 1381.58 2758.93 1384.34 2755.96 1386.41C2753.03 1388.42 2749.02 1389.43 2743.93 1389.43ZM2804.74 1389.43C2800.95 1389.43 2797.54 1388.59 2794.52 1386.91C2791.49 1385.23 2789.12 1382.93 2787.39 1380C2785.71 1377.02 2784.87 1373.66 2784.87 1369.92C2784.87 1366.18 2785.71 1362.84 2787.39 1359.91C2789.12 1356.94 2791.49 1354.63 2794.52 1353C2797.54 1351.32 2800.95 1350.48 2804.74 1350.48C2808.53 1350.48 2811.92 1351.32 2814.89 1353C2817.92 1354.63 2820.27 1356.94 2821.95 1359.91C2823.68 1362.84 2824.54 1366.18 2824.54 1369.92C2824.54 1373.66 2823.68 1377.02 2821.95 1380C2820.27 1382.93 2817.92 1385.23 2814.89 1386.91C2811.92 1388.59 2808.53 1389.43 2804.74 1389.43ZM2804.74 1383.38C2807.19 1383.38 2809.37 1382.83 2811.29 1381.73C2813.26 1380.58 2814.8 1378.99 2815.9 1376.98C2817 1374.91 2817.56 1372.56 2817.56 1369.92C2817.56 1367.28 2817 1364.95 2815.9 1362.94C2814.8 1360.87 2813.26 1359.29 2811.29 1358.18C2809.37 1357.08 2807.19 1356.53 2804.74 1356.53C2802.29 1356.53 2800.08 1357.08 2798.12 1358.18C2796.2 1359.29 2794.66 1360.87 2793.51 1362.94C2792.4 1364.95 2791.85 1367.28 2791.85 1369.92C2791.85 1372.56 2792.4 1374.91 2793.51 1376.98C2794.66 1378.99 2796.2 1380.58 2798.12 1381.73C2800.08 1382.83 2802.29 1383.38 2804.74 1383.38ZM2848.07 1340.83C2843.94 1340.83 2841.87 1343.06 2841.87 1347.53V1350.84H2852.96V1356.53H2842.02V1389H2835.11V1356.53H2828.63V1350.84H2835.11V1347.46C2835.11 1343.66 2836.21 1340.66 2838.42 1338.46C2840.63 1336.25 2843.72 1335.14 2847.71 1335.14C2849.24 1335.14 2850.68 1335.34 2852.03 1335.72C2853.37 1336.1 2854.52 1336.66 2855.48 1337.38L2853.39 1342.63C2851.81 1341.43 2850.03 1340.83 2848.07 1340.83ZM2895.45 1389.43C2891.56 1389.43 2888.08 1388.59 2885.01 1386.91C2881.99 1385.23 2879.61 1382.93 2877.88 1380C2876.15 1377.02 2875.29 1373.66 2875.29 1369.92C2875.29 1366.18 2876.15 1362.84 2877.88 1359.91C2879.61 1356.94 2881.99 1354.63 2885.01 1353C2888.08 1351.32 2891.56 1350.48 2895.45 1350.48C2898.91 1350.48 2901.98 1351.18 2904.67 1352.57C2907.4 1353.96 2909.51 1355.98 2911 1358.62L2905.75 1362C2904.55 1360.18 2903.06 1358.81 2901.28 1357.9C2899.51 1356.98 2897.54 1356.53 2895.38 1356.53C2892.88 1356.53 2890.63 1357.08 2888.61 1358.18C2886.64 1359.29 2885.08 1360.87 2883.93 1362.94C2882.83 1364.95 2882.27 1367.28 2882.27 1369.92C2882.27 1372.61 2882.83 1374.98 2883.93 1377.05C2885.08 1379.06 2886.64 1380.62 2888.61 1381.73C2890.63 1382.83 2892.88 1383.38 2895.38 1383.38C2897.54 1383.38 2899.51 1382.93 2901.28 1382.02C2903.06 1381.1 2904.55 1379.74 2905.75 1377.91L2911 1381.22C2909.51 1383.86 2907.4 1385.9 2904.67 1387.34C2901.98 1388.74 2898.91 1389.43 2895.45 1389.43ZM2935.73 1389.43C2931.94 1389.43 2928.53 1388.59 2925.51 1386.91C2922.48 1385.23 2920.11 1382.93 2918.38 1380C2916.7 1377.02 2915.86 1373.66 2915.86 1369.92C2915.86 1366.18 2916.7 1362.84 2918.38 1359.91C2920.11 1356.94 2922.48 1354.63 2925.51 1353C2928.53 1351.32 2931.94 1350.48 2935.73 1350.48C2939.52 1350.48 2942.91 1351.32 2945.88 1353C2948.91 1354.63 2951.26 1356.94 2952.94 1359.91C2954.67 1362.84 2955.53 1366.18 2955.53 1369.92C2955.53 1373.66 2954.67 1377.02 2952.94 1380C2951.26 1382.93 2948.91 1385.23 2945.88 1386.91C2942.91 1388.59 2939.52 1389.43 2935.73 1389.43ZM2935.73 1383.38C2938.18 1383.38 2940.36 1382.83 2942.28 1381.73C2944.25 1380.58 2945.79 1378.99 2946.89 1376.98C2948 1374.91 2948.55 1372.56 2948.55 1369.92C2948.55 1367.28 2948 1364.95 2946.89 1362.94C2945.79 1360.87 2944.25 1359.29 2942.28 1358.18C2940.36 1357.08 2938.18 1356.53 2935.73 1356.53C2933.28 1356.53 2931.08 1357.08 2929.11 1358.18C2927.19 1359.29 2925.65 1360.87 2924.5 1362.94C2923.4 1364.95 2922.84 1367.28 2922.84 1369.92C2922.84 1372.56 2923.4 1374.91 2924.5 1376.98C2925.65 1378.99 2927.19 1380.58 2929.11 1381.73C2931.08 1382.83 2933.28 1383.38 2935.73 1383.38ZM3001.09 1335.58V1389H2994.47V1382.95C2992.93 1385.06 2990.99 1386.67 2988.64 1387.78C2986.28 1388.88 2983.69 1389.43 2980.86 1389.43C2977.16 1389.43 2973.85 1388.62 2970.92 1386.98C2968 1385.35 2965.69 1383.07 2964.01 1380.14C2962.38 1377.17 2961.56 1373.76 2961.56 1369.92C2961.56 1366.08 2962.38 1362.7 2964.01 1359.77C2965.69 1356.84 2968 1354.56 2970.92 1352.93C2973.85 1351.3 2977.16 1350.48 2980.86 1350.48C2983.6 1350.48 2986.12 1351.01 2988.42 1352.06C2990.72 1353.07 2992.64 1354.58 2994.18 1356.6V1335.58H3001.09ZM2981.44 1383.38C2983.84 1383.38 2986.02 1382.83 2987.99 1381.73C2989.96 1380.58 2991.49 1378.99 2992.6 1376.98C2993.7 1374.91 2994.25 1372.56 2994.25 1369.92C2994.25 1367.28 2993.7 1364.95 2992.6 1362.94C2991.49 1360.87 2989.96 1359.29 2987.99 1358.18C2986.02 1357.08 2983.84 1356.53 2981.44 1356.53C2978.99 1356.53 2976.78 1357.08 2974.81 1358.18C2972.89 1359.29 2971.36 1360.87 2970.2 1362.94C2969.1 1364.95 2968.55 1367.28 2968.55 1369.92C2968.55 1372.56 2969.1 1374.91 2970.2 1376.98C2971.36 1378.99 2972.89 1380.58 2974.81 1381.73C2976.78 1382.83 2978.99 1383.38 2981.44 1383.38ZM3048.66 1370.14C3048.66 1370.66 3048.61 1371.36 3048.51 1372.22H3017.55C3017.99 1375.58 3019.45 1378.3 3021.95 1380.36C3024.49 1382.38 3027.63 1383.38 3031.38 1383.38C3035.94 1383.38 3039.61 1381.85 3042.39 1378.78L3046.21 1383.24C3044.48 1385.26 3042.32 1386.79 3039.73 1387.85C3037.19 1388.9 3034.33 1389.43 3031.16 1389.43C3027.13 1389.43 3023.55 1388.62 3020.43 1386.98C3017.31 1385.3 3014.89 1382.98 3013.16 1380C3011.48 1377.02 3010.64 1373.66 3010.64 1369.92C3010.64 1366.22 3011.46 1362.89 3013.09 1359.91C3014.77 1356.94 3017.05 1354.63 3019.93 1353C3022.86 1351.32 3026.15 1350.48 3029.79 1350.48C3033.44 1350.48 3036.68 1351.32 3039.51 1353C3042.39 1354.63 3044.63 1356.94 3046.21 1359.91C3047.84 1362.89 3048.66 1366.3 3048.66 1370.14ZM3029.79 1356.31C3026.48 1356.31 3023.7 1357.32 3021.44 1359.34C3019.23 1361.35 3017.94 1363.99 3017.55 1367.26H3042.03C3041.65 1364.04 3040.33 1361.42 3038.07 1359.41C3035.87 1357.34 3033.11 1356.31 3029.79 1356.31Z" fill="white"/>
<path d="M2028.67 616.29C2021.79 604.511 2012.45 595.185 2000.65 588.311C1988.85 581.436 1975.97 578 1962 578C1948.03 578 1935.15 581.437 1923.35 588.311C1911.55 595.185 1902.21 604.511 1895.33 616.29C1888.44 628.069 1885 640.932 1885 654.878C1885 671.63 1889.9 686.694 1899.69 700.074C1909.48 713.455 1922.13 722.714 1937.64 727.853C1939.44 728.187 1940.78 727.952 1941.65 727.153C1942.51 726.353 1942.95 725.351 1942.95 724.151C1942.95 723.951 1942.93 722.149 1942.9 718.745C1942.86 715.341 1942.85 712.371 1942.85 709.838L1940.54 710.236C1939.07 710.505 1937.22 710.619 1934.98 710.586C1932.74 710.555 1930.41 710.321 1928.01 709.886C1925.6 709.454 1923.36 708.453 1921.29 706.885C1919.22 705.316 1917.75 703.264 1916.88 700.729L1915.88 698.426C1915.21 696.892 1914.16 695.188 1912.72 693.321C1911.28 691.452 1909.83 690.185 1908.36 689.518L1907.66 689.016C1907.19 688.682 1906.76 688.28 1906.35 687.814C1905.95 687.347 1905.65 686.88 1905.45 686.412C1905.25 685.944 1905.42 685.56 1905.95 685.259C1906.49 684.958 1907.46 684.812 1908.86 684.812L1910.87 685.111C1912.2 685.378 1913.86 686.177 1915.83 687.513C1917.8 688.847 1919.42 690.582 1920.69 692.717C1922.23 695.454 1924.08 697.539 1926.26 698.974C1928.43 700.409 1930.62 701.125 1932.82 701.125C1935.03 701.125 1936.93 700.959 1938.54 700.627C1940.14 700.293 1941.64 699.791 1943.05 699.124C1943.65 694.651 1945.29 691.215 1947.96 688.813C1944.15 688.413 1940.73 687.811 1937.68 687.01C1934.64 686.209 1931.5 684.908 1928.26 683.105C1925.02 681.303 1922.33 679.067 1920.19 676.399C1918.05 673.729 1916.3 670.224 1914.93 665.888C1913.56 661.549 1912.87 656.544 1912.87 650.872C1912.87 642.796 1915.51 635.923 1920.79 630.25C1918.32 624.178 1918.55 617.371 1921.49 609.83C1923.43 609.229 1926.31 609.68 1930.12 611.181C1933.93 612.683 1936.72 613.969 1938.49 615.036C1940.26 616.102 1941.68 617.005 1942.75 617.738C1948.97 616.004 1955.38 615.136 1962 615.136C1968.62 615.136 1975.03 616.004 1981.25 617.738L1985.06 615.337C1987.67 613.734 1990.74 612.266 1994.28 610.931C1997.82 609.597 2000.53 609.23 2002.41 609.831C2005.41 617.372 2005.68 624.179 2003.21 630.251C2008.49 635.924 2011.13 642.798 2011.13 650.873C2011.13 656.545 2010.44 661.566 2009.07 665.938C2007.7 670.31 2005.93 673.811 2003.76 676.449C2001.59 679.086 1998.88 681.305 1995.64 683.106C1992.4 684.908 1989.25 686.209 1986.21 687.01C1983.17 687.812 1979.75 688.414 1975.94 688.814C1979.41 691.816 1981.15 696.555 1981.15 703.028V724.148C1981.15 725.348 1981.57 726.349 1982.4 727.15C1983.24 727.949 1984.56 728.184 1986.36 727.849C2001.87 722.712 2014.52 713.452 2024.31 700.072C2034.1 686.692 2039 671.627 2039 654.875C2039 640.931 2035.55 628.069 2028.67 616.29Z" fill="white"/>
</svg>
